<mxfile host="app.diagrams.net" modified="2021-04-02T11:26:59.225Z" agent="5.0 (Windows NT 10.0; WOW64) AppleWebKit/537.36 (KHTML, like Gecko) Chrome/89.0.4389.114 Safari/537.36" etag="vOFPM35vG114sH64ISQp" version="14.5.6" type="github">
  <diagram id="wrzLgyQJbI-KMDFC_ALZ" name="Page-1">
    <mxGraphModel dx="1038" dy="614" grid="1" gridSize="10" guides="1" tooltips="1" connect="1" arrows="1" fold="1" page="1" pageScale="1" pageWidth="827" pageHeight="1169" background="#F1FAEE" math="0" shadow="0">
      <root>
        <object label="" id="0">
          <mxCell />
        </object>
        <mxCell id="1" parent="0" />
        <mxCell id="91Ya08cUMF_vb_J48Wo7-1" value="" style="ellipse;whiteSpace=wrap;html=1;aspect=fixed;fillColor=#A8DADC;strokeColor=#457B9D;fontColor=#1D3557;shadow=0;labelBackgroundColor=none;flipV=1;" vertex="1" parent="1">
          <mxGeometry x="80" y="230" width="80" height="80" as="geometry" />
        </mxCell>
        <mxCell id="91Ya08cUMF_vb_J48Wo7-2" value="" style="whiteSpace=wrap;html=1;aspect=fixed;fillColor=#A8DADC;strokeColor=#457B9D;fontColor=#1D3557;shadow=0;labelBackgroundColor=none;flipV=1;" vertex="1" parent="1">
          <mxGeometry x="500" y="205" width="130" height="130" as="geometry" />
        </mxCell>
        <mxCell id="91Ya08cUMF_vb_J48Wo7-3" value="" style="endArrow=none;html=1;exitX=1;exitY=0.5;exitDx=0;exitDy=0;entryX=0;entryY=0.5;entryDx=0;entryDy=0;labelBackgroundColor=#F1FAEE;strokeColor=#457B9D;fontColor=#1D3557;" edge="1" parent="1" source="91Ya08cUMF_vb_J48Wo7-1" target="91Ya08cUMF_vb_J48Wo7-2">
          <mxGeometry width="50" height="50" relative="1" as="geometry">
            <mxPoint x="390" y="320" as="sourcePoint" />
            <mxPoint x="440" y="270" as="targetPoint" />
          </mxGeometry>
        </mxCell>
        <mxCell id="91Ya08cUMF_vb_J48Wo7-4" value="&lt;font style=&quot;font-size: 30px;&quot;&gt;正向代理&lt;/font&gt;" style="text;html=1;resizable=0;autosize=1;align=center;verticalAlign=middle;points=[];rounded=0;fontSize=30;fillColor=#A8DADC;strokeColor=#457B9D;fontColor=#1D3557;shadow=0;labelBackgroundColor=none;flipV=1;" vertex="1" parent="1">
          <mxGeometry x="90" y="90" width="140" height="40" as="geometry" />
        </mxCell>
        <mxCell id="91Ya08cUMF_vb_J48Wo7-6" value="用户A" style="text;html=1;resizable=0;autosize=1;align=center;verticalAlign=middle;points=[];rounded=0;fontSize=20;fillColor=#A8DADC;strokeColor=#457B9D;fontColor=#1D3557;shadow=0;labelBackgroundColor=none;flipV=1;" vertex="1" parent="1">
          <mxGeometry x="80" y="330" width="70" height="30" as="geometry" />
        </mxCell>
        <mxCell id="91Ya08cUMF_vb_J48Wo7-7" value="www.google.com" style="text;html=1;resizable=0;autosize=1;align=center;verticalAlign=middle;points=[];rounded=0;fontSize=20;fillColor=#A8DADC;strokeColor=#457B9D;fontColor=#1D3557;shadow=0;labelBackgroundColor=none;flipV=1;" vertex="1" parent="1">
          <mxGeometry x="490" y="350" width="170" height="30" as="geometry" />
        </mxCell>
        <mxCell id="91Ya08cUMF_vb_J48Wo7-9" value="访问不了" style="text;html=1;resizable=0;autosize=1;align=center;verticalAlign=middle;points=[];fillColor=none;strokeColor=none;rounded=0;shadow=0;labelBackgroundColor=none;sketch=0;fontSize=15;fontColor=#1D3557;" vertex="1" parent="1">
          <mxGeometry x="270" y="240" width="80" height="20" as="geometry" />
        </mxCell>
        <mxCell id="91Ya08cUMF_vb_J48Wo7-10" value="" style="whiteSpace=wrap;html=1;aspect=fixed;rounded=0;shadow=0;labelBackgroundColor=none;sketch=0;fontSize=15;fillColor=#A8DADC;strokeColor=#457B9D;fontColor=#1D3557;" vertex="1" parent="1">
          <mxGeometry x="280" y="440" width="80" height="80" as="geometry" />
        </mxCell>
        <mxCell id="91Ya08cUMF_vb_J48Wo7-11" value="www.abc.com" style="text;html=1;resizable=0;autosize=1;align=center;verticalAlign=middle;points=[];fillColor=none;strokeColor=none;rounded=0;shadow=0;labelBackgroundColor=none;sketch=0;fontSize=15;fontColor=#1D3557;" vertex="1" parent="1">
          <mxGeometry x="265" y="550" width="110" height="20" as="geometry" />
        </mxCell>
        <mxCell id="91Ya08cUMF_vb_J48Wo7-12" value="" style="endArrow=classic;html=1;fontSize=15;entryX=0;entryY=0.5;entryDx=0;entryDy=0;labelBackgroundColor=#F1FAEE;strokeColor=#457B9D;fontColor=#1D3557;" edge="1" parent="1" target="91Ya08cUMF_vb_J48Wo7-10">
          <mxGeometry width="50" height="50" relative="1" as="geometry">
            <mxPoint x="150" y="370" as="sourcePoint" />
            <mxPoint x="270" y="480" as="targetPoint" />
          </mxGeometry>
        </mxCell>
        <mxCell id="91Ya08cUMF_vb_J48Wo7-13" value="" style="endArrow=classic;html=1;fontSize=15;labelBackgroundColor=#F1FAEE;strokeColor=#457B9D;fontColor=#1D3557;" edge="1" parent="1">
          <mxGeometry width="50" height="50" relative="1" as="geometry">
            <mxPoint x="370" y="480" as="sourcePoint" />
            <mxPoint x="480" y="340" as="targetPoint" />
          </mxGeometry>
        </mxCell>
        <mxCell id="91Ya08cUMF_vb_J48Wo7-14" value="&lt;font color=&quot;#ff0000&quot;&gt;浏览器配置代理服务器&lt;/font&gt;" style="text;html=1;resizable=0;autosize=1;align=center;verticalAlign=middle;points=[];fillColor=none;strokeColor=none;rounded=0;shadow=0;labelBackgroundColor=none;sketch=0;fontSize=15;fontColor=#1D3557;" vertex="1" parent="1">
          <mxGeometry x="30" y="410" width="170" height="20" as="geometry" />
        </mxCell>
        <mxCell id="91Ya08cUMF_vb_J48Wo7-16" value="" style="ellipse;whiteSpace=wrap;html=1;aspect=fixed;rounded=0;sketch=0;strokeColor=#457B9D;fillColor=#A8DADC;fontColor=#1D3557;" vertex="1" parent="1">
          <mxGeometry x="10" y="750" width="80" height="80" as="geometry" />
        </mxCell>
        <mxCell id="91Ya08cUMF_vb_J48Wo7-17" value="" style="whiteSpace=wrap;html=1;aspect=fixed;rounded=0;sketch=0;strokeColor=#457B9D;fillColor=#A8DADC;fontColor=#1D3557;" vertex="1" parent="1">
          <mxGeometry x="270" y="750" width="80" height="80" as="geometry" />
        </mxCell>
        <mxCell id="91Ya08cUMF_vb_J48Wo7-18" value="" style="rounded=1;whiteSpace=wrap;html=1;sketch=0;strokeColor=#457B9D;fillColor=#A8DADC;fontColor=#1D3557;" vertex="1" parent="1">
          <mxGeometry x="610" y="690" width="100" height="50" as="geometry" />
        </mxCell>
        <mxCell id="91Ya08cUMF_vb_J48Wo7-19" value="" style="rounded=1;whiteSpace=wrap;html=1;sketch=0;strokeColor=#457B9D;fillColor=#A8DADC;fontColor=#1D3557;" vertex="1" parent="1">
          <mxGeometry x="610" y="800" width="100" height="50" as="geometry" />
        </mxCell>
        <mxCell id="91Ya08cUMF_vb_J48Wo7-21" value="" style="endArrow=none;html=1;strokeColor=#457B9D;fillColor=#A8DADC;fontColor=#1D3557;" edge="1" parent="1">
          <mxGeometry width="50" height="50" relative="1" as="geometry">
            <mxPoint x="260" y="860" as="sourcePoint" />
            <mxPoint x="260" y="650" as="targetPoint" />
          </mxGeometry>
        </mxCell>
        <mxCell id="91Ya08cUMF_vb_J48Wo7-22" value="" style="endArrow=none;html=1;strokeColor=#457B9D;fillColor=#A8DADC;fontColor=#1D3557;" edge="1" parent="1">
          <mxGeometry width="50" height="50" relative="1" as="geometry">
            <mxPoint x="260" y="650" as="sourcePoint" />
            <mxPoint x="760" y="650" as="targetPoint" />
          </mxGeometry>
        </mxCell>
        <mxCell id="91Ya08cUMF_vb_J48Wo7-23" value="" style="endArrow=none;html=1;strokeColor=#457B9D;fillColor=#A8DADC;fontColor=#1D3557;" edge="1" parent="1">
          <mxGeometry width="50" height="50" relative="1" as="geometry">
            <mxPoint x="260" y="860" as="sourcePoint" />
            <mxPoint x="760" y="860" as="targetPoint" />
          </mxGeometry>
        </mxCell>
        <mxCell id="91Ya08cUMF_vb_J48Wo7-24" value="" style="endArrow=none;html=1;strokeColor=#457B9D;fillColor=#A8DADC;fontColor=#1D3557;" edge="1" parent="1">
          <mxGeometry width="50" height="50" relative="1" as="geometry">
            <mxPoint x="760" y="860" as="sourcePoint" />
            <mxPoint x="760" y="650" as="targetPoint" />
          </mxGeometry>
        </mxCell>
        <mxCell id="91Ya08cUMF_vb_J48Wo7-25" value="" style="endArrow=classic;html=1;strokeColor=#457B9D;fillColor=#A8DADC;fontColor=#1D3557;exitX=1;exitY=0.5;exitDx=0;exitDy=0;" edge="1" parent="1" source="91Ya08cUMF_vb_J48Wo7-16">
          <mxGeometry width="50" height="50" relative="1" as="geometry">
            <mxPoint x="390" y="720" as="sourcePoint" />
            <mxPoint x="260" y="790" as="targetPoint" />
          </mxGeometry>
        </mxCell>
        <mxCell id="91Ya08cUMF_vb_J48Wo7-26" value="" style="endArrow=classic;html=1;strokeColor=#457B9D;fillColor=#A8DADC;fontColor=#1D3557;exitX=1;exitY=0.25;exitDx=0;exitDy=0;" edge="1" parent="1" source="91Ya08cUMF_vb_J48Wo7-17">
          <mxGeometry width="50" height="50" relative="1" as="geometry">
            <mxPoint x="390" y="720" as="sourcePoint" />
            <mxPoint x="600" y="730" as="targetPoint" />
          </mxGeometry>
        </mxCell>
        <mxCell id="91Ya08cUMF_vb_J48Wo7-27" value="" style="endArrow=classic;html=1;strokeColor=#457B9D;fillColor=#A8DADC;fontColor=#1D3557;exitX=1;exitY=0.5;exitDx=0;exitDy=0;entryX=0;entryY=0.5;entryDx=0;entryDy=0;" edge="1" parent="1" source="91Ya08cUMF_vb_J48Wo7-17" target="91Ya08cUMF_vb_J48Wo7-19">
          <mxGeometry width="50" height="50" relative="1" as="geometry">
            <mxPoint x="390" y="720" as="sourcePoint" />
            <mxPoint x="440" y="670" as="targetPoint" />
          </mxGeometry>
        </mxCell>
        <mxCell id="91Ya08cUMF_vb_J48Wo7-28" value="tomcat" style="text;html=1;resizable=0;autosize=1;align=center;verticalAlign=middle;points=[];fillColor=none;strokeColor=none;rounded=0;sketch=0;fontColor=#1D3557;" vertex="1" parent="1">
          <mxGeometry x="640" y="750" width="50" height="20" as="geometry" />
        </mxCell>
        <mxCell id="91Ya08cUMF_vb_J48Wo7-29" value="反向代理服务器" style="text;html=1;resizable=0;autosize=1;align=center;verticalAlign=middle;points=[];fillColor=none;strokeColor=none;rounded=0;sketch=0;fontColor=#1D3557;" vertex="1" parent="1">
          <mxGeometry x="260" y="705" width="100" height="20" as="geometry" />
        </mxCell>
        <mxCell id="91Ya08cUMF_vb_J48Wo7-30" value="9001" style="text;html=1;resizable=0;autosize=1;align=center;verticalAlign=middle;points=[];fillColor=none;strokeColor=none;rounded=0;sketch=0;fontColor=#1D3557;" vertex="1" parent="1">
          <mxGeometry x="300" y="790" width="40" height="20" as="geometry" />
        </mxCell>
        <mxCell id="91Ya08cUMF_vb_J48Wo7-31" value="8001" style="text;html=1;resizable=0;autosize=1;align=center;verticalAlign=middle;points=[];fillColor=none;strokeColor=none;rounded=0;sketch=0;fontColor=#1D3557;" vertex="1" parent="1">
          <mxGeometry x="630" y="705" width="40" height="20" as="geometry" />
        </mxCell>
        <mxCell id="91Ya08cUMF_vb_J48Wo7-32" value="客户端" style="text;html=1;resizable=0;autosize=1;align=center;verticalAlign=middle;points=[];fillColor=none;strokeColor=none;rounded=0;sketch=0;fontColor=#1D3557;" vertex="1" parent="1">
          <mxGeometry x="25" y="840" width="50" height="20" as="geometry" />
        </mxCell>
        <mxCell id="91Ya08cUMF_vb_J48Wo7-33" value="Text" style="text;html=1;resizable=0;autosize=1;align=center;verticalAlign=middle;points=[];fillColor=none;strokeColor=none;rounded=0;sketch=0;fontColor=#1D3557;" vertex="1" parent="1">
          <mxGeometry x="390" y="780" width="40" height="20" as="geometry" />
        </mxCell>
        <mxCell id="91Ya08cUMF_vb_J48Wo7-34" value="反向代理" style="text;html=1;resizable=0;autosize=1;align=center;verticalAlign=middle;points=[];fillColor=none;strokeColor=none;rounded=0;sketch=0;fontColor=#1D3557;fontSize=20;" vertex="1" parent="1">
          <mxGeometry x="30" y="630" width="100" height="30" as="geometry" />
        </mxCell>
      </root>
    </mxGraphModel>
  </diagram>
</mxfile>
